<svg width="272" height="272" viewBox="0 0 272 272" fill="none" xmlns="http://www.w3.org/2000/svg">
    <path d="M126.848 2.072V47H115.904V20.056L105.856 47H97.024L86.912 19.992V47H75.968V2.072H88.896L101.504 33.176L113.984 2.072H126.848ZM145.662 10.84V19.928H160.318V28.376H145.662V38.232H162.238V47H134.718V2.072H162.238V10.84H145.662ZM180.287 10.84V19.928H194.943V28.376H180.287V38.232H196.863V47H169.343V2.072H196.863V10.84H180.287Z" fill="white"/>
    <path fill-rule="evenodd" clip-rule="evenodd" d="M58 0L30.1667 0L27.9042 0.0754214C20.3149 0.646223 13.2219 4.06452 8.04691 9.64507C2.87197 15.2256 -0.00240548 22.556 1.51048e-06 30.1667V120.667L0.0754214 122.929C0.646223 130.518 4.06452 137.611 9.64507 142.786C15.2256 147.961 22.556 150.836 30.1667 150.833H73.7277C72.598 146.073 72 141.106 72 136C72 130.715 72.6407 125.579 73.8485 120.667H30.1667V30.1667H58V0ZM64.2354 61.2672C65.3974 61.7397 66.6683 62 68 62H87.6896C87.7229 62.0268 87.756 62.0539 87.7889 62.0813C89.1449 63.2113 90.0616 64.7812 90.3793 66.5175L90.5 67.875V82.9583C90.5006 84.7235 89.882 86.4329 88.752 87.7889C87.622 89.1449 86.0521 90.0616 84.3158 90.3793L82.9583 90.5H67.875C66.1099 90.5006 64.4004 89.882 63.0444 88.752C61.6884 87.622 60.7717 86.0521 60.454 84.3158L60.3333 82.9583V67.875C60.3327 66.1099 60.9513 64.4004 62.0813 63.0444C62.687 62.3176 63.4191 61.717 64.2354 61.2672ZM120.667 62H150.833V73.7277C146.073 72.598 141.106 72 136 72C130.715 72 125.579 72.6407 120.667 73.8485V62ZM181.046 62C181.455 69.3933 184.572 76.4011 189.836 81.6644C195.493 87.3217 203.166 90.5 211.167 90.5H241.333C249.334 90.5 257.007 87.3217 262.664 81.6644C268.322 76.007 271.5 68.334 271.5 60.3333V30.1667C271.5 22.166 268.322 14.493 262.664 8.83561C257.007 3.17827 249.334 0 241.333 0H211.167C210.104 0 209.047 0.0560681 208 0.166566V52C208 57.5228 203.523 62 198 62H181.046ZM200 136C200 141.106 199.402 146.073 198.272 150.833H256.417C260.417 150.833 264.254 149.244 267.082 146.416C269.911 143.587 271.5 139.75 271.5 135.75C271.5 131.75 269.911 127.913 267.082 125.084C264.254 122.256 260.417 120.667 256.417 120.667H198.151C199.359 125.579 200 130.715 200 136ZM136 200C130.715 200 125.579 199.359 120.667 198.151V256.417C120.667 260.417 122.256 264.254 125.084 267.082C127.913 269.911 131.75 271.5 135.75 271.5C139.75 271.5 143.587 269.911 146.416 267.082C149.244 264.254 150.833 260.417 150.833 256.417V198.272C146.073 199.402 141.106 200 136 200ZM211.167 30.1667H241.333V60.3333H211.167V30.1667ZM60.3333 181C68.334 181 76.007 184.178 81.6644 189.836C87.3217 195.493 90.5 203.166 90.5 211.167V241.333C90.5 249.334 87.3217 257.007 81.6644 262.664C76.007 268.322 68.334 271.5 60.3333 271.5H30.1667C22.166 271.5 14.493 268.322 8.83561 262.664C3.17827 257.007 1.51048e-06 249.334 1.51048e-06 241.333V211.167C1.51048e-06 203.166 3.17827 195.493 8.83561 189.836C14.493 184.178 22.166 181 30.1667 181H60.3333ZM60.3333 211.167H30.1667V241.333H60.3333V211.167ZM271.5 211.167C271.5 203.166 268.322 195.493 262.664 189.836C257.007 184.178 249.334 181 241.333 181H211.167C203.166 181 195.493 184.178 189.836 189.836C184.178 195.493 181 203.166 181 211.167V241.333C181 249.334 184.178 257.007 189.836 262.664C195.493 268.322 203.166 271.5 211.167 271.5H241.333C249.334 271.5 257.007 268.322 262.664 262.664C268.322 257.007 271.5 249.334 271.5 241.333V211.167ZM211.167 211.167H241.333V241.333H211.167V211.167Z" fill="white" fill-opacity="0.31"/>
</svg>
